<?xml version="1.0" encoding="utf-8"?>
<!-- Generator: Adobe Illustrator 25.1.0, SVG Export Plug-In . SVG Version: 6.00 Build 0)  -->
<svg version="1.1" id="Calque_1" xmlns="http://www.w3.org/2000/svg" xmlns:xlink="http://www.w3.org/1999/xlink" x="0px" y="0px"
	 viewBox="0 0 583 476.6" style="enable-background:new 0 0 583 476.6;" xml:space="preserve">
<style type="text/css">
	.st0{fill:url(#SVGID_1_);}
	.st1{fill:url(#SVGID_2_);}
	.st2{fill:#493C32;}
	.st3{display:none;}
	.st4{display:inline;fill:#493C32;}
</style>
<g>
	<g>
		<linearGradient id="SVGID_1_" gradientUnits="userSpaceOnUse" x1="91.2099" y1="172.8375" x2="514.9618" y2="172.8375">
			<stop  offset="0.4" style="stop-color:#90BBFF"/>
			<stop  offset="0.6" style="stop-color:#A2FF8C"/>
		</linearGradient>
		<path class="st0" d="M307.1,219.6l27.8,27.8c19.9,19.9,46.4,30.9,74.6,30.9c28.2,0,54.7-11,74.6-30.9c41.1-41.1,41.1-108,0-149.2
			c-41.1-41.1-108-41.1-149.2,0l-44,44l0,0l-30.6,30.6l0,0l-44,44c-24.3,24.3-63.8,24.3-88,0c-24.3-24.3-24.3-63.8,0-88
			c12.1-12.1,28.1-18.2,44-18.2c15.9,0,31.9,6.1,44,18.2l27.8,27.8l13.4-13.4l-27.8-27.8c-15.8-15.8-36.6-23.7-57.4-23.7
			c-20.8,0-41.6,7.9-57.4,23.7c-31.6,31.6-31.6,83.1,0,114.8c15.3,15.3,35.7,23.8,57.4,23.8c21.7,0,42.1-8.4,57.4-23.8l57.4-57.4
			c1.3-1.3,2.5-2.5,3.8-3.8l57.4-57.4c33.7-33.7,88.7-33.7,122.4,0c33.7,33.8,33.7,88.7,0,122.4c-16.3,16.4-38.1,25.4-61.2,25.4
			c-23.1,0-44.9-9-61.2-25.4l-27.8-27.8L307.1,219.6z"/>
	</g>
	<linearGradient id="SVGID_2_" gradientUnits="userSpaceOnUse" x1="66.9013" y1="172.8145" x2="490.6559" y2="172.8145">
		<stop  offset="0.4" style="stop-color:#90BBFF"/>
		<stop  offset="0.6" style="stop-color:#A2FF8C"/>
	</linearGradient>
	<path class="st1" d="M324.3,202.4l27.8,27.8c15.3,15.3,35.7,23.8,57.4,23.8c21.7,0,42.1-8.4,57.4-23.8c31.6-31.6,31.6-83.1,0-114.8
		c-31.6-31.6-83.1-31.6-114.8,0l-57.4,57.4c-1.3,1.3-2.6,2.6-3.8,3.8L233.5,234c-16.4,16.4-38.1,25.4-61.2,25.4s-44.9-9-61.2-25.4
		c-33.7-33.8-33.7-88.7,0-122.4c33.8-33.7,88.7-33.7,122.4,0l27.8,27.8l13.4-13.4l-27.8-27.8c-41.1-41.1-108-41.1-149.2,0
		c-41.1,41.1-41.1,108,0,149.2s108,41.1,149.2,0l44-44l0,0l30.6-30.6l0,0l44-44c24.3-24.3,63.8-24.3,88,0c24.3,24.3,24.3,63.8,0,88
		c-11.8,11.8-27.4,18.2-44,18.2s-32.3-6.5-44-18.2L337.7,189L324.3,202.4z"/>
	<g>
		<g>
			<path class="st2" d="M66.9,344.8H76v41.4c0,9.8,6.4,15.5,16.3,15.5c10,0,16.5-5.7,16.5-15.7v-41.2h9.1v41.4
				c0,14.2-10.4,23.8-25.5,23.8c-15.1,0-25.5-9.5-25.5-23.8V344.8z"/>
			<path class="st2" d="M134.6,344.8h19.8c6.8,0,9.6,0.5,12.1,1.5c6.6,2.4,10.9,8.9,10.9,17.3c0,8.2-4.6,15.1-11.7,17.3v0.2
				c0,0,0.7,0.8,1.9,2.9l13.8,24.9h-10.3l-13.7-25.5h-13.9v25.5h-9.1V344.8z M156.8,375.6c7.1,0,11.5-4.4,11.5-11.6
				c0-4.7-1.8-8.1-5.1-9.9c-1.7-0.9-3.9-1.5-8.9-1.5h-10.5v23H156.8z"/>
			<path class="st2" d="M193.5,344.8h22.7c10.9,0,18.8,6,18.8,16.3c0,6.3-3.1,11.3-8.1,13.8v0.2c6.8,2,10.6,8.3,10.6,15.5
				c0,12.1-9.5,18.2-20.8,18.2h-23.2V344.8z M216.1,371.8c5.9,0,9.5-4.1,9.5-9.7c0-5.6-3.5-9.4-9.7-9.4h-13.4v19.1H216.1z
				 M217.1,401.1c7,0,11.1-4.4,11.1-10.9c0-6.5-4.4-11-11.2-11h-14.5v21.9H217.1z"/>
			<path class="st2" d="M283.8,390.5h-24.4l-6.4,18.4h-9.4l23.3-64.1h9.5l23.3,64.1h-9.5L283.8,390.5z M271.6,353.6
				c0,0-1.5,5.8-2.6,9.1l-7.3,20.3h19.6l-7.2-20.3c-1.1-3.3-2.5-9.1-2.5-9.1H271.6z"/>
			<path class="st2" d="M309.3,344.8h9l28.8,41.6c2.4,3.4,5.4,9.3,5.4,9.3h0.2c0,0-0.6-5.7-0.6-9.3v-41.6h9.1v64.1h-8.9l-28.9-41.6
				c-2.4-3.5-5.4-9.3-5.4-9.3h-0.2c0,0,0.6,5.7,0.6,9.3v41.6h-9.1V344.8z"/>
			<path class="st2" d="M407.7,344.8c18.7,0,33.2,14.2,33.2,32.7c0,18.9-14.5,33.6-33.2,33.6c-18.7,0-33.3-14.7-33.3-33.6
				C374.4,359.1,389,344.8,407.7,344.8z M407.7,402.8c13.2,0,23.9-10.9,23.9-25.3c0-14-10.6-24.5-23.9-24.5c-13.2,0-24,10.5-24,24.5
				C383.7,391.9,394.5,402.8,407.7,402.8z"/>
			<path class="st2" d="M481.9,344.8c18.7,0,33.2,14.2,33.2,32.7c0,18.9-14.5,33.6-33.2,33.6c-18.7,0-33.3-14.7-33.3-33.6
				C448.6,359.1,463.2,344.8,481.9,344.8z M481.9,402.8c13.2,0,23.9-10.9,23.9-25.3c0-14-10.6-24.5-23.9-24.5
				c-13.2,0-24,10.5-24,24.5C458,391.9,468.7,402.8,481.9,402.8z"/>
		</g>
		<g>
			<path class="st2" d="M66.9,344.8H76v41.4c0,9.8,6.4,15.5,16.3,15.5c10,0,16.5-5.7,16.5-15.7v-41.2h9.1v41.4
				c0,14.2-10.4,23.8-25.5,23.8c-15.1,0-25.5-9.5-25.5-23.8V344.8z"/>
			<path class="st2" d="M134.6,344.8h19.8c6.8,0,9.6,0.5,12.1,1.5c6.6,2.4,10.9,8.9,10.9,17.3c0,8.2-4.6,15.1-11.7,17.3v0.2
				c0,0,0.7,0.8,1.9,2.9l13.8,24.9h-10.3l-13.7-25.5h-13.9v25.5h-9.1V344.8z M156.8,375.6c7.1,0,11.5-4.4,11.5-11.6
				c0-4.7-1.8-8.1-5.1-9.9c-1.7-0.9-3.9-1.5-8.9-1.5h-10.5v23H156.8z"/>
			<path class="st2" d="M193.5,344.8h22.7c10.9,0,18.8,6,18.8,16.3c0,6.3-3.1,11.3-8.1,13.8v0.2c6.8,2,10.6,8.3,10.6,15.5
				c0,12.1-9.5,18.2-20.8,18.2h-23.2V344.8z M216.1,371.8c5.9,0,9.5-4.1,9.5-9.7c0-5.6-3.5-9.4-9.7-9.4h-13.4v19.1H216.1z
				 M217.1,401.1c7,0,11.1-4.4,11.1-10.9c0-6.5-4.4-11-11.2-11h-14.5v21.9H217.1z"/>
			<path class="st2" d="M283.8,390.5h-24.4l-6.4,18.4h-9.4l23.3-64.1h9.5l23.3,64.1h-9.5L283.8,390.5z M271.6,353.6
				c0,0-1.5,5.8-2.6,9.1l-7.3,20.3h19.6l-7.2-20.3c-1.1-3.3-2.5-9.1-2.5-9.1H271.6z"/>
			<path class="st2" d="M309.3,344.8h9l28.8,41.6c2.4,3.4,5.4,9.3,5.4,9.3h0.2c0,0-0.6-5.7-0.6-9.3v-41.6h9.1v64.1h-8.9l-28.9-41.6
				c-2.4-3.5-5.4-9.3-5.4-9.3h-0.2c0,0,0.6,5.7,0.6,9.3v41.6h-9.1V344.8z"/>
			<path class="st2" d="M407.7,344.8c18.7,0,33.2,14.2,33.2,32.7c0,18.9-14.5,33.6-33.2,33.6c-18.7,0-33.3-14.7-33.3-33.6
				C374.4,359.1,389,344.8,407.7,344.8z M407.7,402.8c13.2,0,23.9-10.9,23.9-25.3c0-14-10.6-24.5-23.9-24.5c-13.2,0-24,10.5-24,24.5
				C383.7,391.9,394.5,402.8,407.7,402.8z"/>
			<path class="st2" d="M481.9,344.8c18.7,0,33.2,14.2,33.2,32.7c0,18.9-14.5,33.6-33.2,33.6c-18.7,0-33.3-14.7-33.3-33.6
				C448.6,359.1,463.2,344.8,481.9,344.8z M481.9,402.8c13.2,0,23.9-10.9,23.9-25.3c0-14-10.6-24.5-23.9-24.5
				c-13.2,0-24,10.5-24,24.5C458,391.9,468.7,402.8,481.9,402.8z"/>
		</g>
	</g>
</g>
<g class="st3">
	<path class="st4" d="M33.5,277.5c18.8,0,33.4,14.3,33.4,32.8c0,18.9-14.6,33.7-33.4,33.7C14.7,344,0,329.3,0,310.3
		C0,291.8,14.7,277.5,33.5,277.5z M33.5,335.7c13.3,0,24-10.9,24-25.4c0-14-10.7-24.6-24-24.6S9.4,296.3,9.4,310.3
		C9.4,324.8,20.2,335.7,33.5,335.7z"/>
	<path class="st4" d="M33.5,0c18.8,0,33.4,14.3,33.4,32.8c0,18.9-14.6,33.7-33.4,33.7C14.7,66.5,0,51.7,0,32.8C0,14.3,14.7,0,33.5,0
		z M33.5,58.2c13.3,0,24-10.9,24-25.4c0-14-10.7-24.6-24-24.6S9.4,18.8,9.4,32.8C9.4,47.3,20.2,58.2,33.5,58.2z"/>
	<path class="st4" d="M548.3,0c18.8,0,33.4,14.3,33.4,32.8c0,18.9-14.6,33.7-33.4,33.7c-18.8,0-33.5-14.8-33.5-33.7
		C514.9,14.3,529.5,0,548.3,0z M548.3,58.3c13.3,0,24-10.9,24-25.4c0-14-10.7-24.6-24-24.6s-24.1,10.6-24.1,24.6
		C524.3,47.3,535,58.3,548.3,58.3z"/>
	<path class="st4" d="M549.6,277.5c18.8,0,33.4,14.3,33.4,32.8c0,18.9-14.6,33.7-33.4,33.7c-18.8,0-33.5-14.8-33.5-33.7
		C516.2,291.8,530.8,277.5,549.6,277.5z M549.6,335.7c13.3,0,24-10.9,24-25.4c0-14-10.7-24.6-24-24.6s-24.1,10.6-24.1,24.6
		C525.6,324.8,536.4,335.7,549.6,335.7z"/>
	<path class="st4" d="M33.5,410.1c18.8,0,33.4,14.3,33.4,32.8c0,18.9-14.6,33.7-33.4,33.7C14.7,476.6,0,461.8,0,442.8
		C0,424.4,14.7,410.1,33.5,410.1z M33.5,468.3c13.3,0,24-10.9,24-25.4c0-14-10.7-24.6-24-24.6S9.4,428.8,9.4,442.8
		C9.4,457.3,20.2,468.3,33.5,468.3z"/>
	<path class="st4" d="M548.3,410.1c18.8,0,33.4,14.3,33.4,32.8c0,18.9-14.6,33.7-33.4,33.7c-18.8,0-33.5-14.8-33.5-33.7
		C514.9,424.4,529.5,410.1,548.3,410.1z M548.3,468.3c13.3,0,24-10.9,24-25.4c0-14-10.7-24.6-24-24.6s-24.1,10.6-24.1,24.6
		C524.3,457.3,535,468.3,548.3,468.3z"/>
</g>
</svg>
